<?xml version="1.0" encoding="UTF-8"?>
<!-- 2023-02-26 15:26:43 Generated by QCAD 3.27.9 SVG Exporter -->
<svg width="123mm" height="123mm" viewBox="-61.5 -61.5 123 123" version="1.1" xmlns="http://www.w3.org/2000/svg" style="stroke-linecap:round;stroke-linejoin:round;fill:none">
    <g transform="scale(1,-1)">
        <!-- Arc -->
        <path d="M61.5,0 A61.5,61.5 0 0,1 43.4871,43.4871" style="stroke:#000000;stroke-width:0.5;"/>
        <!-- Arc -->
        <path d="M43.4871,43.4871 A61.5,61.5 0 0,1 0,61.5" style="stroke:#000000;stroke-width:0.5;"/>
        <!-- Arc -->
        <path d="M0,61.5 A61.5,61.5 0 0,1 -43.4871,43.4871" style="stroke:#000000;stroke-width:0.5;"/>
        <!-- Arc -->
        <path d="M-43.4871,43.4871 A61.5,61.5 0 0,1 -61.5,0" style="stroke:#000000;stroke-width:0.5;"/>
        <!-- Arc -->
        <path d="M-61.5,0 A61.5,61.5 0 0,1 -43.4871,-43.4871" style="stroke:#000000;stroke-width:0.5;"/>
        <!-- Arc -->
        <path d="M-43.4871,-43.4871 A61.5,61.5 0 0,1 0,-61.5" style="stroke:#000000;stroke-width:0.5;"/>
        <!-- Arc -->
        <path d="M0,-61.5 A61.5,61.5 0 0,1 43.4871,-43.4871" style="stroke:#000000;stroke-width:0.5;"/>
        <!-- Arc -->
        <path d="M43.4871,-43.4871 A61.5,61.5 0 0,1 61.5,0" style="stroke:#000000;stroke-width:0.5;"/>
        <!-- Ligne -->
        <path d="M0,0 L3.75,0 M5.25,0 L11.25,0 M12.75,0 L18.75,0 M20.25,0 L26.25,0 M27.75,0 L33.75,0 M35.25,0 L41.25,0 M42.75,0 L48.75,0 M50.25,0 L56.25,0 M57.75,0 L61.5,0 " style="stroke:#000000;stroke-width:0.25;"/>
        <!-- Ligne -->
        <path d="M0,0 L-3.75,0 M-5.25,0 L-11.25,0 M-12.75,0 L-18.75,0 M-20.25,0 L-26.25,0 M-27.75,0 L-33.75,0 M-35.25,0 L-41.25,0 M-42.75,0 L-48.75,0 M-50.25,0 L-56.25,0 M-57.75,0 L-61.5,0 " style="stroke:#000000;stroke-width:0.25;"/>
        <!-- Ligne -->
        <path d="M0,0 L0,3.75 M0,5.25 L0,11.25 M0,12.75 L0,18.75 M0,20.25 L0,26.25 M0,27.75 L0,33.75 M0,35.25 L0,41.25 M0,42.75 L0,48.75 M0,50.25 L0,56.25 M0,57.75 L0,61.5 " style="stroke:#000000;stroke-width:0.25;"/>
        <!-- Ligne -->
        <path d="M0,0 L0,-3.75 M0,-5.25 L0,-11.25 M0,-12.75 L0,-18.75 M0,-20.25 L0,-26.25 M0,-27.75 L0,-33.75 M0,-35.25 L0,-41.25 M0,-42.75 L0,-48.75 M0,-50.25 L0,-56.25 M0,-57.75 L0,-61.5 " style="stroke:#000000;stroke-width:0.25;"/>
        <!-- Ligne -->
        <path d="M0,0 L0.7071,0.7071 " style="stroke:#000000;stroke-width:0.25;"/>
        <!-- Ligne -->
        <path d="M0,0 L2.6517,2.6517 M3.7123,3.7123 L7.955,7.955 M9.0156,9.0156 L13.2583,13.2583 M14.3189,14.3189 L18.5616,18.5616 M19.6222,19.6222 L23.8649,23.8649 M24.9255,24.9255 L29.1682,29.1682 M30.2288,30.2288 L34.4715,34.4715 M35.5321,35.5321 L39.7748,39.7748 M40.8354,40.8354 L43.4871,43.4871 " style="stroke:#000000;stroke-width:0.25;"/>
        <!-- Ligne -->
        <path d="M0,0 L-2.6517,2.6517 M-3.7123,3.7123 L-7.955,7.955 M-9.0156,9.0156 L-13.2583,13.2583 M-14.3189,14.3189 L-18.5616,18.5616 M-19.6222,19.6222 L-23.8649,23.8649 M-24.9255,24.9255 L-29.1682,29.1682 M-30.2288,30.2288 L-34.4715,34.4715 M-35.5321,35.5321 L-39.7748,39.7748 M-40.8354,40.8354 L-43.4871,43.4871 " style="stroke:#000000;stroke-width:0.25;"/>
        <!-- Ligne -->
        <path d="M0,0 L-2.6517,-2.6517 M-3.7123,-3.7123 L-7.955,-7.955 M-9.0156,-9.0156 L-13.2583,-13.2583 M-14.3189,-14.3189 L-18.5616,-18.5616 M-19.6222,-19.6222 L-23.8649,-23.8649 M-24.9255,-24.9255 L-29.1682,-29.1682 M-30.2288,-30.2288 L-34.4715,-34.4715 M-35.5321,-35.5321 L-39.7748,-39.7748 M-40.8354,-40.8354 L-43.4871,-43.4871 " style="stroke:#000000;stroke-width:0.25;"/>
        <!-- Ligne -->
        <path d="M0,0 L2.6517,-2.6517 M3.7123,-3.7123 L7.955,-7.955 M9.0156,-9.0156 L13.2583,-13.2583 M14.3189,-14.3189 L18.5616,-18.5616 M19.6222,-19.6222 L23.8649,-23.8649 M24.9255,-24.9255 L29.1682,-29.1682 M30.2288,-30.2288 L34.4715,-34.4715 M35.5321,-35.5321 L39.7748,-39.7748 M40.8354,-40.8354 L43.4871,-43.4871 " style="stroke:#000000;stroke-width:0.25;"/>
        <!-- Cercle -->
        <path d="M50,0 A50,50 0 0,1 49.9127,2.9529M49.8628,3.7012 A50,50 0 0,1 49.5512,6.6846M49.4453,7.427 A50,50 0 0,1 48.911,10.3786M48.7498,11.1111 A50,50 0 0,1 47.9958,14.0143M47.7802,14.7327 A50,50 0 0,1 46.8108,17.5712M46.542,18.2714 A50,50 0 0,1 45.3626,21.0294M45.0421,21.7074 A50,50 0 0,1 43.6594,24.3693M43.2889,25.0214 A50,50 0 0,1 41.7106,27.5721M41.2924,28.1947 A50,50 0 0,1 39.5274,30.62M39.0637,31.2094 A50,50 0 0,1 37.1219,33.4957M36.6154,34.0487 A50,50 0 0,1 34.5078,36.1831M33.9612,36.6966 A50,50 0 0,1 31.6996,38.667M31.116,39.1381 A50,50 0 0,1 28.7132,40.9335M28.0959,41.3596 A50,50 0 0,1 25.5653,42.9699M24.9179,43.3486 A50,50 0 0,1 22.2737,44.7647M21.5998,45.0938 A50,50 0 0,1 18.8569,46.3079M18.1602,46.5855 A50,50 0 0,1 15.334,47.5906M14.6185,47.8153 A50,50 0 0,1 11.725,48.6058M10.9946,48.7762 A50,50 0 0,1 8.05,49.3477M7.3089,49.4629 A50,50 0 0,1 4.3298,49.8122M3.5821,49.8715 A50,50 0 0,1 0.5852,49.9966M-0.1648,49.9997 A50,50 0 0,1 -3.1627,49.8999M-3.9108,49.8468 A50,50 0 0,1 -6.8928,49.5226M-7.6348,49.4137 A50,50 0 0,1 -10.5841,48.8669M-11.3159,48.7027 A50,50 0 0,1 -14.216,47.9365M-14.9334,47.7179 A50,50 0 0,1 -17.7679,46.7365M-18.4669,46.4648 A50,50 0 0,1 -21.2199,45.2738M-21.8966,44.9504 A50,50 0 0,1 -24.5526,43.5565M-25.2031,43.1834 A50,50 0 0,1 -27.7472,41.5944M-28.368,41.1735 A50,50 0 0,1 -30.7859,39.3983M-31.3734,38.9321 A50,50 0 0,1 -33.6514,36.9808M-34.2023,36.4719 A50,50 0 0,1 -36.3278,34.3554M-36.839,33.8066 A50,50 0 0,1 -38.7999,31.5367M-39.2686,30.9512 A50,50 0 0,1 -41.0539,28.5408M-41.4774,27.9218 A50,50 0 0,1 -43.077,25.3844M-43.4529,24.7355 A50,50 0 0,1 -44.858,22.0853M-45.1842,21.41 A50,50 0 0,1 -46.3867,18.662M-46.6614,17.9642 A50,50 0 0,1 -47.6547,15.1338M-47.8763,14.4173 A50,50 0 0,1 -48.6547,11.5205M-48.822,10.7895 A50,50 0 0,1 -49.3811,7.8425M-49.4932,7.1009 A50,50 0 0,1 -49.8299,4.1203M-49.8861,3.3724 A50,50 0 0,1 -49.9986,0.375M-49.9986,-0.375 A50,50 0 0,1 -49.8861,-3.3724M-49.8299,-4.1203 A50,50 0 0,1 -49.4932,-7.1009M-49.3811,-7.8425 A50,50 0 0,1 -48.822,-10.7895M-48.6547,-11.5205 A50,50 0 0,1 -47.8763,-14.4173M-47.6547,-15.1338 A50,50 0 0,1 -46.6614,-17.9642M-46.3867,-18.662 A50,50 0 0,1 -45.1842,-21.41M-44.858,-22.0853 A50,50 0 0,1 -43.4529,-24.7355M-43.077,-25.3844 A50,50 0 0,1 -41.4774,-27.9218M-41.0539,-28.5408 A50,50 0 0,1 -39.2686,-30.9512M-38.7999,-31.5367 A50,50 0 0,1 -36.839,-33.8066M-36.3278,-34.3554 A50,50 0 0,1 -34.2023,-36.4719M-33.6514,-36.9808 A50,50 0 0,1 -31.3734,-38.9321M-30.7859,-39.3983 A50,50 0 0,1 -28.368,-41.1735M-27.7472,-41.5944 A50,50 0 0,1 -25.2031,-43.1834M-24.5526,-43.5565 A50,50 0 0,1 -21.8966,-44.9504M-21.2199,-45.2738 A50,50 0 0,1 -18.4669,-46.4648M-17.7679,-46.7365 A50,50 0 0,1 -14.9334,-47.7179M-14.216,-47.9365 A50,50 0 0,1 -11.3159,-48.7027M-10.5841,-48.8669 A50,50 0 0,1 -7.6348,-49.4137M-6.8928,-49.5226 A50,50 0 0,1 -3.9108,-49.8468M-3.1627,-49.8999 A50,50 0 0,1 -0.1648,-49.9997M0.5852,-49.9966 A50,50 0 0,1 3.5821,-49.8715M4.3298,-49.8122 A50,50 0 0,1 7.3089,-49.4629M8.05,-49.3477 A50,50 0 0,1 10.9946,-48.7762M11.725,-48.6058 A50,50 0 0,1 14.6185,-47.8153M15.334,-47.5906 A50,50 0 0,1 18.1602,-46.5855M18.8569,-46.3079 A50,50 0 0,1 21.5998,-45.0938M22.2737,-44.7647 A50,50 0 0,1 24.9179,-43.3486M25.5653,-42.9699 A50,50 0 0,1 28.0959,-41.3596M28.7132,-40.9335 A50,50 0 0,1 31.116,-39.1381M31.6996,-38.667 A50,50 0 0,1 33.9612,-36.6966M34.5078,-36.1831 A50,50 0 0,1 36.6154,-34.0487M37.1219,-33.4957 A50,50 0 0,1 39.0637,-31.2094M39.5274,-30.62 A50,50 0 0,1 41.2924,-28.1947M41.7106,-27.5721 A50,50 0 0,1 43.2889,-25.0214M43.6594,-24.3693 A50,50 0 0,1 45.0421,-21.7074M45.3626,-21.0294 A50,50 0 0,1 46.542,-18.2714M46.8108,-17.5712 A50,50 0 0,1 47.7802,-14.7327M47.9958,-14.0143 A50,50 0 0,1 48.7498,-11.1111M48.911,-10.3786 A50,50 0 0,1 49.4453,-7.427M49.5512,-6.6846 A50,50 0 0,1 49.8628,-3.7012M49.9127,-2.9529 A50,50 0 0,1 50,0" style="stroke:#000000;stroke-width:0.25;"/>
        <!-- Cercle -->
        <path d="M52,0 A2,2 0 0,1 50.9443,1.7631M50.2329,1.9864 A2,2 0 0,1 48.0351,0.3728M48.0351,-0.3728 A2,2 0 0,1 50.2329,-1.9864M50.9443,-1.7631 A2,2 0 0,1 52,0" style="stroke:#000000;stroke-width:0.25;"/>
        <!-- Cercle -->
        <path d="M37.3553,35.3553 A2,2 0 0,1 36.2996,37.1184M35.5882,37.3417 A2,2 0 0,1 33.3904,35.7281M33.3904,34.9825 A2,2 0 0,1 35.5882,33.3689M36.2996,33.5923 A2,2 0 0,1 37.3553,35.3553" style="stroke:#000000;stroke-width:0.25;"/>
        <!-- Cercle -->
        <path d="M2,50 A2,2 0 0,1 0.9443,51.7631M0.2329,51.9864 A2,2 0 0,1 -1.9649,50.3728M-1.9649,49.6272 A2,2 0 0,1 0.2329,48.0136M0.9443,48.2369 A2,2 0 0,1 2,50" style="stroke:#000000;stroke-width:0.25;"/>
        <!-- Cercle -->
        <path d="M-33.3553,35.3553 A2,2 0 0,1 -34.4111,37.1184M-35.1225,37.3417 A2,2 0 0,1 -37.3203,35.7281M-37.3203,34.9825 A2,2 0 0,1 -35.1225,33.3689M-34.4111,33.5923 A2,2 0 0,1 -33.3553,35.3553" style="stroke:#000000;stroke-width:0.25;"/>
        <!-- Cercle -->
        <path d="M-48,0 A2,2 0 0,1 -49.0557,1.7631M-49.7671,1.9864 A2,2 0 0,1 -51.9649,0.3728M-51.9649,-0.3728 A2,2 0 0,1 -49.7671,-1.9864M-49.0557,-1.7631 A2,2 0 0,1 -48,0" style="stroke:#000000;stroke-width:0.25;"/>
        <!-- Cercle -->
        <path d="M-33.3553,-35.3553 A2,2 0 0,1 -34.4111,-33.5923M-35.1225,-33.3689 A2,2 0 0,1 -37.3203,-34.9825M-37.3203,-35.7281 A2,2 0 0,1 -35.1225,-37.3417M-34.4111,-37.1184 A2,2 0 0,1 -33.3553,-35.3553" style="stroke:#000000;stroke-width:0.25;"/>
        <!-- Cercle -->
        <path d="M2,-50 A2,2 0 0,1 0.9443,-48.2369M0.2329,-48.0136 A2,2 0 0,1 -1.9649,-49.6272M-1.9649,-50.3728 A2,2 0 0,1 0.2329,-51.9864M0.9443,-51.7631 A2,2 0 0,1 2,-50" style="stroke:#000000;stroke-width:0.25;"/>
        <!-- Cercle -->
        <path d="M37.3553,-35.3553 A2,2 0 0,1 36.2996,-33.5923M35.5882,-33.3689 A2,2 0 0,1 33.3904,-34.9825M33.3904,-35.7281 A2,2 0 0,1 35.5882,-37.3417M36.2996,-37.1184 A2,2 0 0,1 37.3553,-35.3553" style="stroke:#000000;stroke-width:0.25;"/>
        <!-- Texte: 1 -->
        <g>
            <path d="M3.8417,51.9795 L3.2278,51.9795 L3.2278,55.8915 C3.08,55.7506 2.8862,55.6096 2.6463,55.4686 C2.4064,55.3276 2.191,55.2219 2,55.1514 L2,55.7449 C2.3433,55.9063 2.6435,56.1019 2.9004,56.3315 C3.1573,56.5612 3.3392,56.784 3.4461,57 L3.8417,57 Z" style="fill:#000000;fill-rule:evenodd;"/>
        </g>
        <!-- Texte: 2 -->
        <g>
            <path d="M44.4669,32.2996 L44.4669,31.7095 L41.162,31.7095 C41.1574,31.8573 41.1813,31.9995 41.2336,32.1359 C41.3177,32.361 41.4525,32.5827 41.6378,32.801 C41.8231,33.0192 42.0908,33.2716 42.441,33.5581 C42.9844,34.0038 43.3516,34.3568 43.5426,34.6171 C43.7336,34.8775 43.8291,35.1236 43.8291,35.3555 C43.8291,35.5988 43.7421,35.804 43.5682,35.9711 C43.3943,36.1383 43.1675,36.2218 42.8878,36.2218 C42.5922,36.2218 42.3557,36.1332 42.1784,35.9558 C42.001,35.7784 41.9112,35.5329 41.9089,35.2191 L41.278,35.2839 C41.3212,35.7546 41.4837,36.1133 41.7657,36.36 C42.0476,36.6067 42.4262,36.73 42.9014,36.73 C43.3812,36.73 43.7609,36.597 44.0406,36.331 C44.3202,36.0649 44.4601,35.7352 44.4601,35.3419 C44.4601,35.1418 44.4192,34.9451 44.3373,34.7518 C44.2554,34.5586 44.1196,34.3551 43.9297,34.1413 C43.7399,33.9276 43.4244,33.6343 42.9833,33.2614 C42.6149,32.9522 42.3785,32.7424 42.2739,32.6321 C42.1693,32.5219 42.0829,32.411 42.0147,32.2996 Z" style="fill:#000000;fill-rule:evenodd;"/>
        </g>
        <!-- Texte: 3 -->
        <g>
            <path d="M52.5662,-6.991 L53.1802,-6.9092 C53.2507,-7.257 53.3706,-7.5077 53.54,-7.6612 C53.7094,-7.8147 53.9157,-7.8914 54.159,-7.8914 C54.4478,-7.8914 54.6916,-7.7914 54.8906,-7.5913 C55.0896,-7.3912 55.189,-7.1434 55.189,-6.8478 C55.189,-6.5658 55.0969,-6.3333 54.9128,-6.1503 C54.7286,-5.9673 54.4944,-5.8757 54.2102,-5.8757 C54.0942,-5.8757 53.9498,-5.8985 53.777,-5.9439 L53.8452,-5.4051 C53.8862,-5.4096 53.9191,-5.4119 53.9441,-5.4119 C54.2056,-5.4119 54.441,-5.3437 54.6502,-5.2072 C54.8593,-5.0708 54.9639,-4.8605 54.9639,-4.5763 C54.9639,-4.3512 54.8878,-4.1647 54.7354,-4.0169 C54.5831,-3.8691 54.3864,-3.7952 54.1454,-3.7952 C53.9066,-3.7952 53.7077,-3.8703 53.5485,-4.0203 C53.3894,-4.1704 53.287,-4.3955 53.2416,-4.6957 L52.6276,-4.5865 C52.7027,-4.175 52.8732,-3.8561 53.1392,-3.6298 C53.4053,-3.4036 53.7361,-3.2905 54.1317,-3.2905 C54.4046,-3.2905 54.6558,-3.349 54.8855,-3.4661 C55.1151,-3.5832 55.2908,-3.7429 55.4124,-3.9453 C55.5341,-4.1477 55.5949,-4.3625 55.5949,-4.5899 C55.5949,-4.8059 55.5369,-5.0026 55.421,-5.18 C55.305,-5.3573 55.1333,-5.4983 54.9059,-5.6029 C55.2015,-5.6711 55.4312,-5.8126 55.5949,-6.0275 C55.7586,-6.2424 55.8405,-6.5112 55.8405,-6.8341 C55.8405,-7.2707 55.6813,-7.6407 55.363,-7.9443 C55.0446,-8.2478 54.6422,-8.3996 54.1556,-8.3996 C53.7168,-8.3996 53.3524,-8.2689 53.0625,-8.0074 C52.7726,-7.7459 52.6072,-7.4071 52.5662,-6.991" style="fill:#000000;fill-rule:evenodd;"/>
        </g>
        <!-- Texte: 4 -->
        <g>
            <path d="M35.4509,-44.7858 L35.4509,-43.5887 L33.2818,-43.5887 L33.2818,-43.0259 L35.5635,-39.7858 L36.0649,-39.7858 L36.0649,-43.0259 L36.7402,-43.0259 L36.7402,-43.5887 L36.0649,-43.5887 L36.0649,-44.7858 Z M35.4509,-43.0259 L35.4509,-40.7715 L33.8855,-43.0259 Z" style="fill:#000000;fill-rule:evenodd;"/>
        </g>
        <!-- Texte: 5 -->
        <g>
            <path d="M-6.1166,-55.6422 L-5.472,-55.5876 C-5.4243,-55.9014 -5.3134,-56.1373 -5.1395,-56.2953 C-4.9655,-56.4533 -4.7558,-56.5323 -4.5102,-56.5323 C-4.2146,-56.5323 -3.9645,-56.4209 -3.7599,-56.1981 C-3.5552,-55.9753 -3.4529,-55.6797 -3.4529,-55.3113 C-3.4529,-54.9612 -3.5513,-54.6849 -3.7479,-54.4825 C-3.9446,-54.2802 -4.2021,-54.179 -4.5205,-54.179 C-4.7183,-54.179 -4.8968,-54.2239 -5.0559,-54.3137 C-5.2151,-54.4035 -5.3401,-54.5201 -5.4311,-54.6633 L-6.0075,-54.5883 L-5.5232,-52.0201 L-3.0368,-52.0201 L-3.0368,-52.6067 L-5.032,-52.6067 L-5.3015,-53.9505 C-5.0014,-53.7413 -4.6864,-53.6367 -4.3567,-53.6367 C-3.9202,-53.6367 -3.5518,-53.7879 -3.2517,-54.0903 C-2.9516,-54.3927 -2.8015,-54.7815 -2.8015,-55.2568 C-2.8015,-55.7092 -2.9334,-56.1003 -3.1971,-56.43 C-3.5177,-56.8348 -3.9554,-57.0371 -4.5102,-57.0371 C-4.965,-57.0371 -5.3362,-56.9098 -5.6238,-56.6551 C-5.9114,-56.4005 -6.0757,-56.0628 -6.1166,-55.6422" style="fill:#000000;fill-rule:evenodd;"/>
        </g>
        <!-- Texte: 6 -->
        <g>
            <path d="M-39.8139,-32.9437 L-40.4244,-32.9914 C-40.479,-32.7504 -40.5563,-32.5753 -40.6563,-32.4662 C-40.8223,-32.2911 -41.0269,-32.2036 -41.2702,-32.2036 C-41.4658,-32.2036 -41.6374,-32.2581 -41.7852,-32.3673 C-41.9785,-32.5082 -42.1308,-32.714 -42.2423,-32.9846 C-42.3537,-33.2552 -42.4117,-33.6406 -42.4162,-34.1408 C-42.2684,-33.9157 -42.0876,-33.7486 -41.8739,-33.6394 C-41.6602,-33.5303 -41.4362,-33.4757 -41.202,-33.4757 C-40.7927,-33.4757 -40.4443,-33.6264 -40.1567,-33.9276 C-39.869,-34.2289 -39.7252,-34.6183 -39.7252,-35.0958 C-39.7252,-35.4096 -39.7929,-35.7012 -39.9281,-35.9706 C-40.0634,-36.2401 -40.2493,-36.4464 -40.4858,-36.5896 C-40.7223,-36.7329 -40.9906,-36.8045 -41.2907,-36.8045 C-41.8023,-36.8045 -42.2195,-36.6164 -42.5424,-36.2401 C-42.8653,-35.8637 -43.0267,-35.2436 -43.0267,-34.3796 C-43.0267,-33.4132 -42.8482,-32.7106 -42.4912,-32.2718 C-42.1797,-31.8898 -41.7602,-31.6988 -41.2327,-31.6988 C-40.8394,-31.6988 -40.517,-31.8091 -40.2658,-32.0296 C-40.0145,-32.2502 -39.8639,-32.5549 -39.8139,-32.9437 M-42.3207,-35.0992 C-42.3207,-35.3107 -42.2758,-35.513 -42.186,-35.7063 C-42.0962,-35.8996 -41.9705,-36.0468 -41.8091,-36.148 C-41.6477,-36.2492 -41.4783,-36.2997 -41.3009,-36.2997 C-41.0417,-36.2997 -40.8189,-36.1951 -40.6324,-35.986 C-40.446,-35.7768 -40.3528,-35.4926 -40.3528,-35.1333 C-40.3528,-34.7877 -40.4449,-34.5154 -40.629,-34.3165 C-40.8132,-34.1175 -41.0451,-34.018 -41.3248,-34.018 C-41.6022,-34.018 -41.8375,-34.1175 -42.0308,-34.3165 C-42.2241,-34.5154 -42.3207,-34.7763 -42.3207,-35.0992" style="fill:#000000;fill-rule:evenodd;"/>
        </g>
        <!-- Texte: 7 -->
        <g>
            <path d="M-54.6389,9.3257 L-54.6389,9.9158 L-51.4022,9.9158 L-51.4022,9.4383 C-51.7205,9.0995 -52.036,8.6493 -52.3486,8.0877 C-52.6613,7.526 -52.9029,6.9485 -53.0734,6.3551 C-53.1962,5.9367 -53.2746,5.4785 -53.3087,4.9806 L-53.9397,4.9806 C-53.9329,5.3739 -53.8556,5.8492 -53.7078,6.4062 C-53.56,6.9633 -53.3479,7.5005 -53.0717,8.0177 C-52.7954,8.535 -52.5015,8.971 -52.19,9.3257 Z" style="fill:#000000;fill-rule:evenodd;"/>
        </g>
        <!-- Texte: 8 -->
        <g>
            <path d="M-32.9513,43.7522 C-33.206,43.8454 -33.3947,43.9784 -33.5175,44.1513 C-33.6403,44.3241 -33.7016,44.531 -33.7016,44.772 C-33.7016,45.1358 -33.5709,45.4416 -33.3094,45.6895 C-33.0479,45.9373 -32.7001,46.0612 -32.2658,46.0612 C-31.8292,46.0612 -31.4779,45.9345 -31.2119,45.6809 C-30.9458,45.4274 -30.8128,45.1187 -30.8128,44.7549 C-30.8128,44.523 -30.8737,44.3212 -30.9953,44.1495 C-31.1169,43.9779 -31.3017,43.8454 -31.5495,43.7522 C-31.2426,43.6522 -31.0089,43.4907 -30.8486,43.2679 C-30.6883,43.0451 -30.6082,42.779 -30.6082,42.4698 C-30.6082,42.0423 -30.7594,41.6831 -31.0618,41.392 C-31.3642,41.101 -31.7621,40.9555 -32.2555,40.9555 C-32.7489,40.9555 -33.1468,41.1016 -33.4493,41.3938 C-33.7517,41.6859 -33.9029,42.0503 -33.9029,42.4869 C-33.9029,42.812 -33.8204,43.0843 -33.6556,43.3037 C-33.4908,43.5231 -33.256,43.6726 -32.9513,43.7522 M-33.0741,44.7925 C-33.0741,44.556 -32.9979,44.3627 -32.8456,44.2126 C-32.6932,44.0626 -32.4954,43.9875 -32.2521,43.9875 C-32.0156,43.9875 -31.8218,44.062 -31.6706,44.2109 C-31.5194,44.3599 -31.4438,44.5423 -31.4438,44.7583 C-31.4438,44.9835 -31.5217,45.1727 -31.6774,45.3262 C-31.8332,45.4797 -32.027,45.5564 -32.2589,45.5564 C-32.4931,45.5564 -32.6875,45.4814 -32.8422,45.3313 C-32.9968,45.1813 -33.0741,45.0016 -33.0741,44.7925 M-33.2719,42.4835 C-33.2719,42.3084 -33.2304,42.139 -33.1474,41.9753 C-33.0644,41.8116 -32.9411,41.6848 -32.7774,41.595 C-32.6136,41.5052 -32.4374,41.4603 -32.2487,41.4603 C-31.9554,41.4603 -31.7132,41.5546 -31.5222,41.7433 C-31.3312,41.9321 -31.2357,42.1719 -31.2357,42.463 C-31.2357,42.7586 -31.3341,43.003 -31.5308,43.1963 C-31.7275,43.3895 -31.9736,43.4862 -32.2692,43.4862 C-32.5579,43.4862 -32.7973,43.3907 -32.9871,43.1997 C-33.177,43.0087 -33.2719,42.7699 -33.2719,42.4835" style="fill:#000000;fill-rule:evenodd;"/>
        </g>
    </g>
</svg>
